<svg width="40" height="40" viewBox="0 0 40 40" fill="none" xmlns="http://www.w3.org/2000/svg">
<rect width="40" height="40" rx="4" fill="#7C92FF"/>
<path d="M15.2969 29V26.5625L20.9922 21.2891C21.4766 20.8203 21.8828 20.3984 22.2109 20.0234C22.5443 19.6484 22.7969 19.2812 22.9688 18.9219C23.1406 18.5573 23.2266 18.1641 23.2266 17.7422C23.2266 17.2734 23.1198 16.8698 22.9063 16.5312C22.6927 16.1875 22.401 15.9245 22.0313 15.7422C21.6615 15.5547 21.2422 15.4609 20.7734 15.4609C20.2839 15.4609 19.8568 15.5599 19.4922 15.7578C19.1276 15.9557 18.8464 16.2396 18.6484 16.6094C18.4505 16.9792 18.3516 17.4193 18.3516 17.9297H15.1406C15.1406 16.8828 15.3776 15.974 15.8516 15.2031C16.3255 14.4323 16.9896 13.8359 17.8438 13.4141C18.6979 12.9922 19.6823 12.7812 20.7969 12.7812C21.9427 12.7812 22.9401 12.9844 23.7891 13.3906C24.6432 13.7917 25.3073 14.349 25.7813 15.0625C26.2552 15.776 26.4922 16.5937 26.4922 17.5156C26.4922 18.1198 26.3724 18.7161 26.1328 19.3047C25.8984 19.8932 25.4792 20.5469 24.875 21.2656C24.2708 21.9792 23.4193 22.8359 22.3203 23.8359L19.9844 26.125V26.2344H26.7031V29H15.2969Z" fill="white"/>
</svg>
