<svg width="40" height="40" viewBox="0 0 40 40" fill="none" xmlns="http://www.w3.org/2000/svg">
<rect width="40" height="40" rx="4" fill="#7C92FF"/>
<path d="M21.2109 29.2187C20.0443 29.2187 19.0052 29.0182 18.0938 28.6172C17.1875 28.2109 16.4714 27.6536 15.9453 26.9453C15.4245 26.2318 15.1563 25.4089 15.1406 24.4766H18.5469C18.5677 24.8672 18.6953 25.2109 18.9297 25.5078C19.1693 25.7995 19.487 26.026 19.8828 26.1875C20.2786 26.349 20.724 26.4297 21.2188 26.4297C21.7344 26.4297 22.1901 26.3385 22.5859 26.1562C22.9818 25.974 23.2917 25.7214 23.5156 25.3984C23.7396 25.0755 23.8516 24.7031 23.8516 24.2812C23.8516 23.8542 23.7318 23.4766 23.4922 23.1484C23.2578 22.8151 22.9193 22.5547 22.4766 22.3672C22.0391 22.1797 21.5182 22.0859 20.9141 22.0859H19.4219V19.6016H20.9141C21.4245 19.6016 21.875 19.513 22.2656 19.3359C22.6615 19.1589 22.9688 18.9141 23.1875 18.6016C23.4063 18.2839 23.5156 17.9141 23.5156 17.4922C23.5156 17.0911 23.4193 16.7396 23.2266 16.4375C23.0391 16.1302 22.7734 15.8906 22.4297 15.7187C22.0911 15.5469 21.6953 15.4609 21.2422 15.4609C20.7839 15.4609 20.3646 15.5443 19.9844 15.7109C19.6042 15.8724 19.2995 16.1042 19.0703 16.4062C18.8411 16.7083 18.7188 17.0625 18.7031 17.4687H15.4609C15.4766 16.5469 15.7396 15.7344 16.25 15.0312C16.7604 14.3281 17.4479 13.7786 18.3125 13.3828C19.1823 12.9818 20.1641 12.7812 21.2578 12.7812C22.362 12.7812 23.3281 12.9818 24.1563 13.3828C24.9844 13.7839 25.6276 14.3255 26.0859 15.0078C26.5495 15.6849 26.7786 16.4453 26.7734 17.2891C26.7786 18.1849 26.5 18.9323 25.9375 19.5312C25.3802 20.1302 24.6536 20.5104 23.7578 20.6719V20.7969C24.9349 20.9479 25.8307 21.3568 26.4453 22.0234C27.0651 22.6849 27.3724 23.513 27.3672 24.5078C27.3724 25.4193 27.1094 26.2292 26.5781 26.9375C26.0521 27.6458 25.3255 28.2031 24.3984 28.6094C23.4714 29.0156 22.4089 29.2187 21.2109 29.2187Z" fill="white"/>
</svg>
